<mxfile host="65bd71144e">
    <diagram id="_aD04N4xmqhP_ezU_jEi" name="第 1 页">
        <mxGraphModel dx="2413" dy="1453" grid="1" gridSize="10" guides="1" tooltips="1" connect="1" arrows="1" fold="1" page="1" pageScale="1" pageWidth="5000" pageHeight="2000" math="0" shadow="0">
            <root>
                <mxCell id="0"/>
                <mxCell id="1" parent="0"/>
                <mxCell id="27" value="" style="shape=ext;double=1;rounded=1;whiteSpace=wrap;html=1;strokeColor=default;fontFamily=Helvetica;fontSize=30;fontColor=default;fillColor=default;" parent="1" vertex="1">
                    <mxGeometry x="110" y="680" width="2090" height="1190" as="geometry"/>
                </mxCell>
                <mxCell id="9" value="D-TLB" style="rounded=0;whiteSpace=wrap;html=1;fontSize=30;" parent="1" vertex="1">
                    <mxGeometry x="570" y="1110" width="600" height="60" as="geometry"/>
                </mxCell>
                <mxCell id="58" value="&lt;ul&gt;&lt;li&gt;hitVec(TLB)&lt;/li&gt;&lt;/ul&gt;" style="text;strokeColor=none;fillColor=none;html=1;whiteSpace=wrap;verticalAlign=middle;overflow=hidden;rounded=0;fontFamily=Helvetica;fontSize=30;fontColor=default;" parent="1" vertex="1">
                    <mxGeometry x="720" y="1010" width="210" height="90" as="geometry"/>
                </mxCell>
                <mxCell id="66" value="ReadReg" style="rounded=0;whiteSpace=wrap;html=1;strokeColor=default;fontFamily=Helvetica;fontSize=30;fontColor=default;fillColor=#CC6600;gradientColor=none;" vertex="1" parent="1">
                    <mxGeometry x="270" y="800" width="170" height="210" as="geometry"/>
                </mxCell>
                <mxCell id="83" value="Mem0&lt;br&gt;(checkhit)" style="rounded=0;whiteSpace=wrap;html=1;strokeColor=default;fontFamily=Helvetica;fontSize=30;fontColor=default;fillColor=#CC6600;gradientColor=none;" vertex="1" parent="1">
                    <mxGeometry x="570" y="800" width="170" height="210" as="geometry"/>
                </mxCell>
                <mxCell id="88" value="" style="edgeStyle=elbowEdgeStyle;elbow=vertical;endArrow=classic;html=1;curved=0;rounded=0;endSize=8;startSize=8;entryX=0.25;entryY=1;entryDx=0;entryDy=0;exitX=0.712;exitY=0.024;exitDx=0;exitDy=0;exitPerimeter=0;" edge="1" parent="1">
                    <mxGeometry width="50" height="50" relative="1" as="geometry">
                        <mxPoint x="639.76" y="1111.4400000000003" as="sourcePoint"/>
                        <mxPoint x="640.5" y="1009.9999999999998" as="targetPoint"/>
                    </mxGeometry>
                </mxCell>
                <mxCell id="89" value="&lt;ul&gt;&lt;li&gt;vaddr&lt;/li&gt;&lt;/ul&gt;" style="text;strokeColor=none;fillColor=none;html=1;whiteSpace=wrap;verticalAlign=middle;overflow=hidden;rounded=0;fontFamily=Helvetica;fontSize=30;fontColor=default;" vertex="1" parent="1">
                    <mxGeometry x="490" y="1010" width="130" height="90" as="geometry"/>
                </mxCell>
                <mxCell id="90" value="" style="edgeStyle=elbowEdgeStyle;elbow=horizontal;endArrow=classic;html=1;curved=0;rounded=0;endSize=8;startSize=8;exitX=1;exitY=0.5;exitDx=0;exitDy=0;entryX=0;entryY=0.5;entryDx=0;entryDy=0;" edge="1" parent="1" source="66" target="83">
                    <mxGeometry width="50" height="50" relative="1" as="geometry">
                        <mxPoint x="560" y="1060" as="sourcePoint"/>
                        <mxPoint x="610" y="1010" as="targetPoint"/>
                    </mxGeometry>
                </mxCell>
                <mxCell id="92" value="&lt;ul&gt;&lt;li&gt;hitVec(TLB)&lt;/li&gt;&lt;/ul&gt;" style="text;strokeColor=none;fillColor=none;html=1;whiteSpace=wrap;verticalAlign=middle;overflow=hidden;rounded=0;fontFamily=Helvetica;fontSize=30;fontColor=default;" vertex="1" parent="1">
                    <mxGeometry x="740" y="830" width="230" height="90" as="geometry"/>
                </mxCell>
                <mxCell id="122" style="edgeStyle=none;html=1;entryX=0;entryY=0.5;entryDx=0;entryDy=0;fontSize=26;" edge="1" parent="1" source="95" target="121">
                    <mxGeometry relative="1" as="geometry"/>
                </mxCell>
                <mxCell id="95" value="Mem1&lt;br&gt;(checkhit&lt;br&gt;&amp;amp; request)" style="rounded=0;whiteSpace=wrap;html=1;strokeColor=default;fontFamily=Helvetica;fontSize=30;fontColor=default;fillColor=#CC6600;gradientColor=none;" vertex="1" parent="1">
                    <mxGeometry x="980" y="800" width="170" height="210" as="geometry"/>
                </mxCell>
                <mxCell id="97" value="" style="edgeStyle=elbowEdgeStyle;elbow=horizontal;endArrow=classic;html=1;curved=0;rounded=0;endSize=8;startSize=8;exitX=1;exitY=0.5;exitDx=0;exitDy=0;entryX=0;entryY=0.5;entryDx=0;entryDy=0;" edge="1" parent="1" source="83" target="95">
                    <mxGeometry width="50" height="50" relative="1" as="geometry">
                        <mxPoint x="870" y="1000" as="sourcePoint"/>
                        <mxPoint x="920" y="950" as="targetPoint"/>
                    </mxGeometry>
                </mxCell>
                <mxCell id="109" value="yes" style="edgeStyle=none;html=1;entryX=0;entryY=0.5;entryDx=0;entryDy=0;fontSize=26;" edge="1" parent="1" source="105" target="108">
                    <mxGeometry relative="1" as="geometry"/>
                </mxCell>
                <mxCell id="120" value="no" style="edgeStyle=none;html=1;fontSize=26;entryX=0.524;entryY=-0.014;entryDx=0;entryDy=0;entryPerimeter=0;" edge="1" parent="1" source="105" target="74">
                    <mxGeometry x="-0.4919" relative="1" as="geometry">
                        <mxPoint x="1065" y="1260" as="targetPoint"/>
                        <mxPoint as="offset"/>
                    </mxGeometry>
                </mxCell>
                <mxCell id="105" value="cache miss" style="html=1;whiteSpace=wrap;aspect=fixed;shape=isoRectangle;labelBackgroundColor=none;fontSize=26;" vertex="1" parent="1">
                    <mxGeometry x="973.33" y="1322" width="183.34" height="110" as="geometry"/>
                </mxCell>
                <mxCell id="108" value="replace line" style="shape=ext;double=1;rounded=1;whiteSpace=wrap;html=1;labelBackgroundColor=none;fontSize=26;" vertex="1" parent="1">
                    <mxGeometry x="1280" y="1347" width="220" height="60" as="geometry"/>
                </mxCell>
                <mxCell id="112" value="" style="edgeStyle=elbowEdgeStyle;elbow=horizontal;endArrow=classic;html=1;curved=0;rounded=0;endSize=8;startSize=8;fontSize=26;exitX=1;exitY=0.5;exitDx=0;exitDy=0;" edge="1" parent="1" source="108">
                    <mxGeometry width="50" height="50" relative="1" as="geometry">
                        <mxPoint x="1080" y="1347" as="sourcePoint"/>
                        <mxPoint x="1070" y="1497" as="targetPoint"/>
                        <Array as="points">
                            <mxPoint x="1530" y="1427"/>
                        </Array>
                    </mxGeometry>
                </mxCell>
                <mxCell id="119" value="&lt;ul&gt;&lt;li&gt;vaddr&lt;/li&gt;&lt;/ul&gt;" style="text;strokeColor=none;fillColor=none;html=1;whiteSpace=wrap;verticalAlign=middle;overflow=hidden;rounded=0;fontFamily=Helvetica;fontSize=30;fontColor=default;" vertex="1" parent="1">
                    <mxGeometry x="190" y="1110" width="130" height="90" as="geometry"/>
                </mxCell>
                <mxCell id="128" style="edgeStyle=none;html=1;fontSize=45;" edge="1" parent="1" source="121">
                    <mxGeometry relative="1" as="geometry">
                        <mxPoint x="1920" y="905" as="targetPoint"/>
                    </mxGeometry>
                </mxCell>
                <mxCell id="121" value="Mem2&lt;br&gt;(getdata)" style="rounded=0;whiteSpace=wrap;html=1;strokeColor=default;fontFamily=Helvetica;fontSize=30;fontColor=default;fillColor=#CC6600;gradientColor=none;" vertex="1" parent="1">
                    <mxGeometry x="1600" y="800" width="170" height="210" as="geometry"/>
                </mxCell>
                <mxCell id="123" value="" style="edgeStyle=elbowEdgeStyle;elbow=vertical;endArrow=classic;html=1;curved=0;rounded=0;endSize=8;startSize=8;fontSize=26;entryX=0.5;entryY=1;entryDx=0;entryDy=0;exitX=0.932;exitY=0.025;exitDx=0;exitDy=0;exitPerimeter=0;" edge="1" parent="1" source="74" target="121">
                    <mxGeometry width="50" height="50" relative="1" as="geometry">
                        <mxPoint x="1120" y="1060" as="sourcePoint"/>
                        <mxPoint x="1170" y="1010" as="targetPoint"/>
                    </mxGeometry>
                </mxCell>
                <mxCell id="124" value="&lt;font style=&quot;font-size: 45px;&quot;&gt;访存流水线&lt;/font&gt;" style="text;strokeColor=none;fillColor=none;html=1;fontSize=24;fontStyle=1;verticalAlign=middle;align=center;labelBackgroundColor=none;opacity=50;" vertex="1" parent="1">
                    <mxGeometry x="845" y="1800" width="620" height="40" as="geometry"/>
                </mxCell>
                <mxCell id="126" value="WriteBack" style="rounded=0;whiteSpace=wrap;html=1;strokeColor=default;fontFamily=Helvetica;fontSize=30;fontColor=default;fillColor=#CC6600;gradientColor=none;" vertex="1" parent="1">
                    <mxGeometry x="1930" y="800" width="170" height="900" as="geometry"/>
                </mxCell>
                <mxCell id="131" value="" style="edgeStyle=elbowEdgeStyle;elbow=vertical;endArrow=classic;html=1;curved=0;rounded=0;endSize=8;startSize=8;fontSize=35;exitX=0.25;exitY=1;exitDx=0;exitDy=0;entryX=0.028;entryY=0.003;entryDx=0;entryDy=0;entryPerimeter=0;" edge="1" parent="1" source="66" target="74">
                    <mxGeometry width="50" height="50" relative="1" as="geometry">
                        <mxPoint x="310" y="1180" as="sourcePoint"/>
                        <mxPoint x="313" y="1260" as="targetPoint"/>
                        <Array as="points">
                            <mxPoint x="480" y="1200"/>
                        </Array>
                    </mxGeometry>
                </mxCell>
                <mxCell id="132" value="" style="edgeStyle=elbowEdgeStyle;elbow=vertical;endArrow=classic;html=1;curved=0;rounded=0;endSize=8;startSize=8;fontSize=35;exitX=0.25;exitY=1;exitDx=0;exitDy=0;" edge="1" parent="1" source="83">
                    <mxGeometry width="50" height="50" relative="1" as="geometry">
                        <mxPoint x="800" y="1060" as="sourcePoint"/>
                        <mxPoint x="613" y="1110" as="targetPoint"/>
                    </mxGeometry>
                </mxCell>
                <mxCell id="137" value="&lt;ul&gt;&lt;li&gt;paddr&lt;/li&gt;&lt;/ul&gt;" style="text;strokeColor=none;fillColor=none;html=1;whiteSpace=wrap;verticalAlign=middle;overflow=hidden;rounded=0;fontFamily=Helvetica;fontSize=30;fontColor=default;" vertex="1" parent="1">
                    <mxGeometry x="1030" y="1010" width="120" height="90" as="geometry"/>
                </mxCell>
                <mxCell id="139" value="" style="edgeStyle=elbowEdgeStyle;elbow=vertical;endArrow=classic;html=1;curved=0;rounded=0;endSize=8;startSize=8;fontSize=35;entryX=0.295;entryY=1.017;entryDx=0;entryDy=0;entryPerimeter=0;exitX=0.766;exitY=0.07;exitDx=0;exitDy=0;exitPerimeter=0;" edge="1" parent="1" source="9" target="95">
                    <mxGeometry width="50" height="50" relative="1" as="geometry">
                        <mxPoint x="1070" y="1050" as="sourcePoint"/>
                        <mxPoint x="1120" y="1000" as="targetPoint"/>
                    </mxGeometry>
                </mxCell>
                <mxCell id="145" value="" style="edgeStyle=elbowEdgeStyle;elbow=vertical;endArrow=classic;html=1;curved=0;rounded=0;endSize=8;startSize=8;fontSize=35;exitX=0.136;exitY=0.995;exitDx=0;exitDy=0;exitPerimeter=0;entryX=0.722;entryY=0.167;entryDx=0;entryDy=0;entryPerimeter=0;" edge="1" parent="1" source="95" target="9">
                    <mxGeometry width="50" height="50" relative="1" as="geometry">
                        <mxPoint x="970" y="1080" as="sourcePoint"/>
                        <mxPoint x="1020" y="1030" as="targetPoint"/>
                    </mxGeometry>
                </mxCell>
                <mxCell id="146" value="" style="edgeStyle=elbowEdgeStyle;elbow=vertical;endArrow=classic;html=1;curved=0;rounded=0;endSize=8;startSize=8;fontSize=35;exitX=0.75;exitY=0;exitDx=0;exitDy=0;entryX=0.484;entryY=0.076;entryDx=0;entryDy=0;entryPerimeter=0;" edge="1" parent="1" source="137" target="105">
                    <mxGeometry width="50" height="50" relative="1" as="geometry">
                        <mxPoint x="1120" y="1250" as="sourcePoint"/>
                        <mxPoint x="1170" y="1200" as="targetPoint"/>
                        <Array as="points">
                            <mxPoint x="1120" y="1270"/>
                            <mxPoint x="1230" y="1120"/>
                            <mxPoint x="1130" y="1270"/>
                            <mxPoint x="1230" y="1150"/>
                            <mxPoint x="1120" y="1230"/>
                        </Array>
                    </mxGeometry>
                </mxCell>
                <mxCell id="147" value="&lt;font style=&quot;font-size: 30px;&quot;&gt;hitVec(D-Cache)&lt;/font&gt;" style="edgeLabel;html=1;align=center;verticalAlign=middle;resizable=0;points=[];fontSize=35;" vertex="1" connectable="0" parent="146">
                    <mxGeometry x="0.0063" relative="1" as="geometry">
                        <mxPoint y="30" as="offset"/>
                    </mxGeometry>
                </mxCell>
                <mxCell id="149" value="" style="edgeStyle=elbowEdgeStyle;elbow=vertical;endArrow=classic;html=1;curved=0;rounded=0;endSize=8;startSize=8;fontSize=30;entryX=0.683;entryY=0.976;entryDx=0;entryDy=0;entryPerimeter=0;exitX=0.273;exitY=0.017;exitDx=0;exitDy=0;exitPerimeter=0;fillColor=#0050ef;strokeColor=#001DBC;" edge="1" parent="1" source="74" target="83">
                    <mxGeometry width="50" height="50" relative="1" as="geometry">
                        <mxPoint x="590" y="1410" as="sourcePoint"/>
                        <mxPoint x="640" y="1360" as="targetPoint"/>
                    </mxGeometry>
                </mxCell>
                <mxCell id="150" value="&lt;font color=&quot;#3333ff&quot;&gt;tags&lt;/font&gt;" style="edgeLabel;html=1;align=center;verticalAlign=middle;resizable=0;points=[];fontSize=30;" vertex="1" connectable="0" parent="149">
                    <mxGeometry x="-0.487" relative="1" as="geometry">
                        <mxPoint as="offset"/>
                    </mxGeometry>
                </mxCell>
                <mxCell id="151" value="" style="edgeStyle=elbowEdgeStyle;elbow=horizontal;endArrow=classic;html=1;curved=0;rounded=0;endSize=8;startSize=8;fontSize=30;fontColor=#3333FF;entryX=0.006;entryY=0.872;entryDx=0;entryDy=0;entryPerimeter=0;fillColor=#0050ef;strokeColor=#001DBC;" edge="1" parent="1" target="95">
                    <mxGeometry width="50" height="50" relative="1" as="geometry">
                        <mxPoint x="740" y="983" as="sourcePoint"/>
                        <mxPoint x="870" y="990" as="targetPoint"/>
                    </mxGeometry>
                </mxCell>
                <mxCell id="153" value="tags" style="edgeLabel;html=1;align=center;verticalAlign=middle;resizable=0;points=[];fontSize=30;fontColor=#3333FF;" vertex="1" connectable="0" parent="151">
                    <mxGeometry x="-0.3796" y="2" relative="1" as="geometry">
                        <mxPoint as="offset"/>
                    </mxGeometry>
                </mxCell>
                <mxCell id="134" value="" style="group" vertex="1" connectable="0" parent="1">
                    <mxGeometry x="90" y="1530" width="1700" height="170" as="geometry"/>
                </mxCell>
                <mxCell id="74" value="D-Cache" style="rounded=0;whiteSpace=wrap;html=1;fontSize=30;gradientColor=none;fillColor=none;" vertex="1" parent="134">
                    <mxGeometry x="180" width="1520" height="170" as="geometry"/>
                </mxCell>
                <mxCell id="155" value="&lt;font color=&quot;#cc0000&quot;&gt;访问tagsram&lt;/font&gt;" style="shape=ext;double=1;rounded=0;whiteSpace=wrap;html=1;labelBackgroundColor=none;strokeColor=#7F00FF;fontSize=30;fontColor=#3333FF;fillColor=#66FFFF;gradientColor=none;opacity=10;" vertex="1" parent="1">
                    <mxGeometry x="240" y="730" width="530" height="1020" as="geometry"/>
                </mxCell>
                <mxCell id="157" value="&lt;font color=&quot;#cc0000&quot;&gt;访问datasram&lt;/font&gt;" style="shape=ext;double=1;rounded=0;whiteSpace=wrap;html=1;labelBackgroundColor=none;strokeColor=#7F00FF;fontSize=30;fontColor=#3333FF;fillColor=#66FFFF;gradientColor=none;opacity=10;" vertex="1" parent="1">
                    <mxGeometry x="960" y="730" width="830" height="1020" as="geometry"/>
                </mxCell>
            </root>
        </mxGraphModel>
    </diagram>
</mxfile>